inDegrees=no
num_controls=7
num_derivatives=13
num_iterations=139
num_multipliers=7
num_parameters=0
num_slacks=7
num_states=26
objective=5.204789
objective_accelerations=0.466383
objective_balance=0.077077
objective_effort=0.414548
objective_height=4.205581
objective_ligament=0.041201
solver_duration=1624.391691
status=Solve_Succeeded
success=true
DataType=double
version=3
OpenSimVersion=4.4-2022-07-23-0e9fedc
endheader
time	/jointset/ground_pelvis/pelvis_tilt/value	/jointset/ground_pelvis/pelvis_tx/value	/jointset/ground_pelvis/pelvis_ty/value	/jointset/hip_l/hip_flexion_l/value	/jointset/hip_l/hip_adduction_l/value	/jointset/hip_l/hip_rotation_l/value	/jointset/back/lumbar_extension/value	/jointset/patellofemoral_l/patellar_flexion_l/value	/jointset/knee_l/knee_flexion_l/value	/jointset/knee_l/knee_adduction_l/value	/jointset/knee_l/knee_rotation_l/value	/jointset/ankle_l/ankle_angle_l/value	/jointset/subtalar_l/subtalar_angle_l/value	/jointset/ground_pelvis/pelvis_tilt/speed	/jointset/ground_pelvis/pelvis_tx/speed	/jointset/ground_pelvis/pelvis_ty/speed	/jointset/hip_l/hip_flexion_l/speed	/jointset/hip_l/hip_adduction_l/speed	/jointset/hip_l/hip_rotation_l/speed	/jointset/back/lumbar_extension/speed	/jointset/patellofemoral_l/patellar_flexion_l/speed	/jointset/knee_l/knee_flexion_l/speed	/jointset/knee_l/knee_adduction_l/speed	/jointset/knee_l/knee_rotation_l/speed	/jointset/ankle_l/ankle_angle_l/speed	/jointset/subtalar_l/subtalar_angle_l/speed	/forceset/tau_hip_flexion_l	/forceset/tau_hip_adduction_l	/forceset/tau_hip_rotation_l	/forceset/tau_knee_flexion_l	/forceset/tau_ankle_angle_l	/forceset/tau_subtalar_angle_l	/forceset/tau_lumbar_extension	lambda_cid13_p0	lambda_cid13_p1	lambda_cid13_p2	lambda_cid13_p3	lambda_cid13_p4	lambda_cid13_p5	lambda_cid14_p0	/jointset/ground_pelvis/pelvis_tilt/accel	/jointset/ground_pelvis/pelvis_tx/accel	/jointset/ground_pelvis/pelvis_ty/accel	/jointset/hip_l/hip_flexion_l/accel	/jointset/hip_l/hip_adduction_l/accel	/jointset/hip_l/hip_rotation_l/accel	/jointset/back/lumbar_extension/accel	/jointset/patellofemoral_l/patellar_flexion_l/accel	/jointset/knee_l/knee_flexion_l/accel	/jointset/knee_l/knee_adduction_l/accel	/jointset/knee_l/knee_rotation_l/accel	/jointset/ankle_l/ankle_angle_l/accel	/jointset/subtalar_l/subtalar_angle_l/accel	gamma_cid13_p0	gamma_cid13_p1	gamma_cid13_p2	gamma_cid13_p3	gamma_cid13_p4	gamma_cid13_p5	gamma_cid14_p0
0.5	-0.4415178382369297	-0.07201014344794375	0.7856169018191451	1.171010978582477	-0.3076704242659731	-0.09275701015315285	-0.3196176698454366	0.560477958387207	0.5604779583869481	-0.1744704581603372	0.1745020920971363	-0.01201379364971187	-0.05533752458007508	-0.7479396194367239	-0.2830518245789589	-0.4031858224548708	2.132977698417645	-0.0621772842914048	0.4941049993382828	-0.6286090524138279	1.44118685956986	1.441186859569831	-0.000722761999971298	0.0001446573651267312	0.1212838209696337	-0.05305719833370195	-0.2393927337675609	0.017941633365016	-0.01853810602143744	-0.177635328166635	0.1482463187719	0.04261470184356653	0.215269401585634	8.361123280493251	-23.09774660270703	6.850876722827115	-4.137205595686597	-610.6629308707849	-62.13090362778147	-34.9939455573856	0.4993795012115676	0.6071018986422079	-0.2192708958751784	-1.362135684984221	0.4264877246127992	-0.2218375870315496	1.588253847239962	-0.8490226417899646	-0.8490226417899562	0.0233806955440846	-0.03099538903429264	0.09511927504663388	0.432263699373276	1.796151542939478e-08	-7.97538235109477e-07	8.184240997815959e-08	-1.281349023322398e-07	-1.231524569479017e-07	-3.152860102684658e-08	-1.045410798346674e-07
0.51	-0.4489707925925864	-0.074809973150014	0.7815748943891262	1.19226910146228	-0.3082716321818521	-0.08782882343943546	-0.3258241688981265	0.574845458254282	0.5748454582543165	-0.1744774422996883	0.1745034767565338	-0.01079667737861793	-0.05584728344244071	-0.7425555933585696	-0.2768873827545969	-0.4051357995005526	2.118367654440167	-0.05807006230540386	0.4914648609978408	-0.612619874518841	1.432117157844885	1.432117157844863	-0.0006729099767475604	0.0001353750027869598	0.1221094627469175	-0.04890207937400422	-0.2473185235684595	0.01892831478897024	-0.01852226295570847	-0.1782609929661894	0.1481515696760229	0.04351486647792831	0.2213587129499437	8.136696388544282	-23.3416963390678	6.766754011263674	-4.154115201720721	-614.4080692116424	-61.84032622155511	-34.33668709274224	0.5722581596701085	0.6251000700191882	-0.1709053043625514	-1.552328477176092	0.4020743836817436	-0.2953350864401995	1.614882300506306	-0.9653166466559249	-0.9653166466550346	-0.004175149438928598	0.01450786496842834	0.07178653349137834	0.4061225423311254	1.387246544617883e-08	-7.574905781413614e-07	8.251557113917749e-08	-1.233384343259935e-07	-1.150208682315342e-07	-2.202929970919895e-08	-1.019475662768716e-07
0.52	-0.4563670378877152	-0.07754736148470186	0.7775157783495608	1.213372745957724	-0.3088319208882539	-0.08292908473489993	-0.3318686496638861	0.5891163865623458	0.5891163865626581	-0.1744839204398292	0.1745048490972751	-0.009572204708864706	-0.05631569380559642	-0.7365978073384233	-0.2705635511024782	-0.4066075443641571	2.102082021540825	-0.05399344239588106	0.4884153975018119	-0.596205395028803	1.421872547767723	1.421872547767707	-0.00062156215953987	0.0001421936325336179	0.1227551007010968	-0.04478749849177784	-0.2552443133693637	0.01991499621293659	-0.01850641988990284	-0.1788866577657505	0.148056820580148	0.04441503111230228	0.227448024314245	7.903941787093145	-23.58582614716483	6.684531142358307	-4.151656814649241	-618.2800915219425	-61.59091035683712	-33.6572656015471	0.6141314896090299	0.6389798641942542	-0.1236244594595719	-1.697253469357128	0.4203673093171944	-0.3037026181489317	1.673314166249721	-1.08400431222759	-1.084004312227589	0.02367985434087139	-0.02777519061693222	0.05911851042664376	0.4241560838792105	9.813146910154346e-09	-7.141970998724105e-07	8.363857270722318e-08	-1.177761758878864e-07	-1.069495652848506e-07	-1.295801732431243e-08	-9.889589651468117e-08
0.53	-0.4637009406309326	-0.08022078488116399	0.7734443412883014	1.2343053836969	-0.3093516056719439	-0.07806172077217964	-0.3377469574085879	0.6032790931970199	0.6032790931970504	-0.1744898413887486	0.1745062354131121	-0.008342164098065768	-0.05674316938187015	-0.7300920783972107	-0.264100632299968	-0.4075987222976974	2.084178634179894	-0.04995359782345359	0.4849930946025731	-0.5793999435282688	1.410480230965293	1.410480230965285	-0.0005633430817918751	0.0001372868268625442	0.1232228124115055	-0.04071940009255917	-0.2629753392852309	0.02075645380743689	-0.01852800317438304	-0.179563735506228	0.1480657475059453	0.04518792916603873	0.2333412288346027	7.706781075211541	-23.78377343989559	6.598209125723276	-4.151092779109661	-622.0507605124109	-61.27656927941957	-32.95844502087005	0.6823871985071981	0.6529993026211475	-0.07471316338148992	-1.876922320805882	0.3943663264069407	-0.3712420595196835	1.692592198618577	-1.195108136280934	-1.195108136279632	-0.003335612781975777	0.01342625604495035	0.03606141805162175	0.3964677061142809	6.121816797272171e-09	-6.704040808051938e-07	8.431992558148915e-08	-1.119147171140891e-07	-9.897919455525876e-08	-4.551588522529352e-09	-9.547746784222192e-08
